<svg id="visual" viewBox="0 0 900 600" width="900" height="600" xmlns="http://www.w3.org/2000/svg" xmlns:xlink="http://www.w3.org/1999/xlink" version="1.1"><path d="M0 372L21.5 369.8C43 367.7 86 363.3 128.8 370.5C171.7 377.7 214.3 396.3 257.2 410.7C300 425 343 435 385.8 428.8C428.7 422.7 471.3 400.3 514.2 389.5C557 378.7 600 379.3 642.8 381.2C685.7 383 728.3 386 771.2 392.7C814 399.3 857 409.7 878.5 414.8L900 420L900 601L878.5 601C857 601 814 601 771.2 601C728.3 601 685.7 601 642.8 601C600 601 557 601 514.2 601C471.3 601 428.7 601 385.8 601C343 601 300 601 257.2 601C214.3 601 171.7 601 128.8 601C86 601 43 601 21.5 601L0 601Z" fill="#c62368"></path><path d="M0 469L21.5 468C43 467 86 465 128.8 463.3C171.7 461.7 214.3 460.3 257.2 462.7C300 465 343 471 385.8 471.3C428.7 471.7 471.3 466.3 514.2 460.5C557 454.7 600 448.3 642.8 444C685.7 439.7 728.3 437.3 771.2 440.8C814 444.3 857 453.7 878.5 458.3L900 463L900 601L878.5 601C857 601 814 601 771.2 601C728.3 601 685.7 601 642.8 601C600 601 557 601 514.2 601C471.3 601 428.7 601 385.8 601C343 601 300 601 257.2 601C214.3 601 171.7 601 128.8 601C86 601 43 601 21.5 601L0 601Z" fill="#d53867"></path><path d="M0 496L21.5 490.7C43 485.3 86 474.7 128.8 477.2C171.7 479.7 214.3 495.3 257.2 500.8C300 506.3 343 501.7 385.8 491.3C428.7 481 471.3 465 514.2 463.3C557 461.7 600 474.3 642.8 475.7C685.7 477 728.3 467 771.2 461C814 455 857 453 878.5 452L900 451L900 601L878.5 601C857 601 814 601 771.2 601C728.3 601 685.7 601 642.8 601C600 601 557 601 514.2 601C471.3 601 428.7 601 385.8 601C343 601 300 601 257.2 601C214.3 601 171.7 601 128.8 601C86 601 43 601 21.5 601L0 601Z" fill="#e34c67"></path><path d="M0 494L21.5 499.5C43 505 86 516 128.8 521.8C171.7 527.7 214.3 528.3 257.2 529.3C300 530.3 343 531.7 385.8 529C428.7 526.3 471.3 519.7 514.2 519.8C557 520 600 527 642.8 529C685.7 531 728.3 528 771.2 527.5C814 527 857 529 878.5 530L900 531L900 601L878.5 601C857 601 814 601 771.2 601C728.3 601 685.7 601 642.8 601C600 601 557 601 514.2 601C471.3 601 428.7 601 385.8 601C343 601 300 601 257.2 601C214.3 601 171.7 601 128.8 601C86 601 43 601 21.5 601L0 601Z" fill="#ef5f67"></path><path d="M0 557L21.5 555C43 553 86 549 128.8 546.8C171.7 544.7 214.3 544.3 257.2 543.8C300 543.3 343 542.7 385.8 543.5C428.7 544.3 471.3 546.7 514.2 543.8C557 541 600 533 642.8 531.5C685.7 530 728.3 535 771.2 539.2C814 543.3 857 546.7 878.5 548.3L900 550L900 601L878.5 601C857 601 814 601 771.2 601C728.3 601 685.7 601 642.8 601C600 601 557 601 514.2 601C471.3 601 428.7 601 385.8 601C343 601 300 601 257.2 601C214.3 601 171.7 601 128.8 601C86 601 43 601 21.5 601L0 601Z" fill="#fa7268"></path></svg>