<svg id="visual" viewBox="0 0 900 600" width="900" height="600" xmlns="http://www.w3.org/2000/svg" xmlns:xlink="http://www.w3.org/1999/xlink" version="1.1"><path d="M0 417L21.5 409.3C43 401.7 86 386.3 128.8 380.7C171.7 375 214.3 379 257.2 375.5C300 372 343 361 385.8 356.5C428.7 352 471.3 354 514.2 354.3C557 354.7 600 353.3 642.8 360C685.7 366.7 728.3 381.3 771.2 382.5C814 383.7 857 371.3 878.5 365.2L900 359L900 601L878.5 601C857 601 814 601 771.2 601C728.3 601 685.7 601 642.8 601C600 601 557 601 514.2 601C471.3 601 428.7 601 385.8 601C343 601 300 601 257.2 601C214.3 601 171.7 601 128.8 601C86 601 43 601 21.5 601L0 601Z" fill="#fa7268"></path><path d="M0 475L21.5 467.7C43 460.3 86 445.7 128.8 433.5C171.7 421.3 214.3 411.7 257.2 416.3C300 421 343 440 385.8 442.3C428.7 444.7 471.3 430.3 514.2 431.5C557 432.7 600 449.3 642.8 453.5C685.7 457.7 728.3 449.3 771.2 440.2C814 431 857 421 878.5 416L900 411L900 601L878.5 601C857 601 814 601 771.2 601C728.3 601 685.7 601 642.8 601C600 601 557 601 514.2 601C471.3 601 428.7 601 385.8 601C343 601 300 601 257.2 601C214.3 601 171.7 601 128.8 601C86 601 43 601 21.5 601L0 601Z" fill="#ef5f67"></path><path d="M0 444L21.5 453C43 462 86 480 128.8 482.5C171.7 485 214.3 472 257.2 471.7C300 471.3 343 483.7 385.8 486.8C428.7 490 471.3 484 514.2 479C557 474 600 470 642.8 471.7C685.7 473.3 728.3 480.7 771.2 480C814 479.3 857 470.7 878.5 466.3L900 462L900 601L878.5 601C857 601 814 601 771.2 601C728.3 601 685.7 601 642.8 601C600 601 557 601 514.2 601C471.3 601 428.7 601 385.8 601C343 601 300 601 257.2 601C214.3 601 171.7 601 128.8 601C86 601 43 601 21.5 601L0 601Z" fill="#e34c67"></path><path d="M0 513L21.5 507.5C43 502 86 491 128.8 489.7C171.7 488.3 214.3 496.7 257.2 499.2C300 501.7 343 498.3 385.8 503.8C428.7 509.3 471.3 523.7 514.2 529C557 534.3 600 530.7 642.8 525.5C685.7 520.3 728.3 513.7 771.2 509.2C814 504.7 857 502.3 878.5 501.2L900 500L900 601L878.5 601C857 601 814 601 771.2 601C728.3 601 685.7 601 642.8 601C600 601 557 601 514.2 601C471.3 601 428.7 601 385.8 601C343 601 300 601 257.2 601C214.3 601 171.7 601 128.8 601C86 601 43 601 21.5 601L0 601Z" fill="#d53867"></path><path d="M0 557L21.5 555.5C43 554 86 551 128.8 546.8C171.7 542.7 214.3 537.3 257.2 535.7C300 534 343 536 385.8 539.8C428.7 543.7 471.3 549.3 514.2 547.7C557 546 600 537 642.8 533C685.7 529 728.3 530 771.2 534.7C814 539.3 857 547.7 878.5 551.8L900 556L900 601L878.5 601C857 601 814 601 771.2 601C728.3 601 685.7 601 642.8 601C600 601 557 601 514.2 601C471.3 601 428.7 601 385.8 601C343 601 300 601 257.2 601C214.3 601 171.7 601 128.8 601C86 601 43 601 21.5 601L0 601Z" fill="#c62368"></path></svg>